<svg width="36" height="36" viewBox="0 0 36 36" fill="none" xmlns="http://www.w3.org/2000/svg">
<rect width="36" height="36" rx="8" fill="#F4F4F4"/>
<path d="M12.1464 12.8536C11.9512 12.6583 11.9512 12.3417 12.1464 12.1464C12.3417 11.9512 12.6583 11.9512 12.8536 12.1464L18 17.2929L23.1464 12.1464C23.3417 11.9512 23.6583 11.9512 23.8536 12.1464C24.0488 12.3417 24.0488 12.6583 23.8536 12.8536L18.7071 18L23.8536 23.1464C24.0488 23.3417 24.0488 23.6583 23.8536 23.8536C23.6583 24.0488 23.3417 24.0488 23.1464 23.8536L18 18.7071L12.8536 23.8536C12.6583 24.0488 12.3417 24.0488 12.1464 23.8536C11.9512 23.6583 11.9512 23.3417 12.1464 23.1464L17.2929 18L12.1464 12.8536Z" fill="#3E3E40"/>
</svg>
