<svg width="16" height="16" viewBox="0 0 16 16" fill="none" xmlns="http://www.w3.org/2000/svg">
<g id="x-diamond-fill">
<g id="Subtract">
<path d="M9.04941 0.434679C8.46984 -0.144892 7.53017 -0.144894 6.95059 0.434678L4.0462 3.33907L8 7.29286L11.9538 3.33907L9.04941 0.434679Z" fill="#FF4545"/>
<path d="M12.6609 4.04617L8.70711 7.99997L12.6609 11.9538L15.5653 9.04941C16.1449 8.46984 16.1449 7.53017 15.5653 6.95059L12.6609 4.04617Z" fill="#FF4545"/>
<path d="M11.9538 12.6609L8 8.70708L4.04617 12.6609L6.95059 15.5653C7.53016 16.1449 8.46983 16.1449 9.04941 15.5653L11.9538 12.6609Z" fill="#FF4545"/>
<path d="M3.33907 11.9538L7.29289 7.99997L3.3391 4.04617L0.434679 6.95059C-0.144892 7.53016 -0.144894 8.46983 0.434678 9.04941L3.33907 11.9538Z" fill="#FF4545"/>
</g>
</g>
</svg>
