<svg width="15" height="14" viewBox="0 0 15 14" fill="none" xmlns="http://www.w3.org/2000/svg">
<path fill-rule="evenodd" clip-rule="evenodd" d="M7.5 2.18936L13.5 8.18936V12.3965C13.5 13.2249 12.8284 13.8965 12 13.8965H3C2.17157 13.8965 1.5 13.2249 1.5 12.3965V8.18936L7.5 2.18936Z" fill="#FF4545"/>
<path fill-rule="evenodd" clip-rule="evenodd" d="M12.5 1.39647V4.89647L10.5 2.89647V1.39647C10.5 1.12033 10.7239 0.89647 11 0.89647H12C12.2761 0.89647 12.5 1.12033 12.5 1.39647Z" fill="#FF4545"/>
<path fill-rule="evenodd" clip-rule="evenodd" d="M6.79289 0.39647C7.18342 0.00594449 7.81658 0.00594658 8.20711 0.39647L14.8536 7.04292C15.0488 7.23818 15.0488 7.55476 14.8536 7.75002C14.6583 7.94529 14.3417 7.94529 14.1464 7.75002L7.5 1.10358L0.853553 7.75002C0.658291 7.94529 0.341709 7.94529 0.146447 7.75002C-0.0488155 7.55476 -0.0488155 7.23818 0.146447 7.04292L6.79289 0.39647Z" fill="#FF4545"/>
</svg>
