<svg width="16" height="16" viewBox="0 0 16 16" fill="none" xmlns="http://www.w3.org/2000/svg">
<g id="book-fill">
<path id="v2 (Stroke)" d="M8 1.78312C7.01509 0.936527 5.58683 0.809035 4.28732 0.94011C2.77322 1.09283 1.24459 1.61241 0.293099 2.0449C0.114601 2.12604 0 2.30401 0 2.50009V13.5001C0 13.6701 0.0863761 13.8284 0.229307 13.9205C0.372238 14.0125 0.55214 14.0256 0.706901 13.9553C1.58875 13.5544 3.01012 13.074 4.38768 12.9351C5.79565 12.793 6.97747 13.0223 7.60957 13.8124C7.70445 13.931 7.84811 14.0001 8 14.0001C8.15189 14.0001 8.29555 13.931 8.39043 13.8124C9.02253 13.0223 10.2043 12.793 11.6123 12.9351C12.9899 13.074 14.4113 13.5544 15.2931 13.9553C15.4479 14.0256 15.6278 14.0125 15.7707 13.9205C15.9136 13.8284 16 13.6701 16 13.5001V2.50009C16 2.30401 15.8854 2.12604 15.7069 2.0449C14.7554 1.61241 13.2268 1.09283 11.7127 0.94011C10.4132 0.809035 8.98491 0.936527 8 1.78312Z" fill="#FF4545"/>
</g>
</svg>
