<svg width="16" height="16" viewBox="0 0 16 16" fill="none" xmlns="http://www.w3.org/2000/svg">
<g id="award-fill">
<g id="Vector">
<path d="M7.9998 0L9.66849 0.864295L11.5265 1.1459L12.3685 2.82596L13.7061 4.1459L13.3998 6L13.7061 7.8541L12.3685 9.17404L11.5265 10.8541L9.66849 11.1357L7.9998 12L6.3311 11.1357L4.47308 10.8541L3.6311 9.17404L2.29346 7.8541L2.5998 6L2.29346 4.1459L3.6311 2.82596L4.47308 1.1459L6.3311 0.864295L7.9998 0Z" fill="#FF4545"/>
<path d="M3.9998 11.7938V16L7.9998 15L11.9998 16V11.7938L9.98168 12.0997L7.99979 13.1262L6.01789 12.0997L3.9998 11.7938Z" fill="#FF4545"/>
</g>
</g>
</svg>
