<svg width="36" height="36" viewBox="0 0 36 36" fill="none" xmlns="http://www.w3.org/2000/svg">
<rect width="36" height="36" rx="8" fill="white"/>
<path fill-rule="evenodd" clip-rule="evenodd" d="M11.8848 10.5111C12.6269 9.76896 13.8515 9.8452 14.4958 10.6736L16.2895 12.9798C16.6187 13.403 16.735 13.9541 16.605 14.4742L16.0577 16.6633C15.9999 16.8944 16.0677 17.1389 16.2361 17.3073L18.6927 19.7639C18.8611 19.9323 19.1056 20.0001 19.3367 19.9423L21.5258 19.395C22.0459 19.265 22.597 19.3813 23.0202 19.7105L25.3264 21.5042C26.1548 22.1485 26.231 23.3731 25.4889 24.1152L24.455 25.1492C23.7153 25.8889 22.6089 26.2137 21.5778 25.8512C19.0175 24.9511 16.6144 23.4774 14.5685 21.4315C12.5226 19.3856 11.0489 16.9825 10.1488 14.4222C9.78632 13.3911 10.1111 12.2847 10.8508 11.545L11.8848 10.5111Z" fill="#FF4545"/>
</svg>
